<svg xmlns="http://www.w3.org/2000/svg" width="866" height="227" viewBox="0 0 866 227" fill="none"><path d="M242.705 20.44C242.705 22.88 242.145 25.12 241.025 27.16C239.905 29.16 238.185 30.78 235.865 32.02C233.545 33.26 230.665 33.88 227.225 33.88H220.865V49H210.605V6.88H227.225C230.585 6.88 233.425 7.46 235.745 8.62C238.065 9.78 239.805 11.38 240.965 13.42C242.125 15.46 242.705 17.8 242.705 20.44ZM226.445 25.72C228.405 25.72 229.865 25.26 230.825 24.34C231.785 23.42 232.265 22.12 232.265 20.44C232.265 18.76 231.785 17.46 230.825 16.54C229.865 15.62 228.405 15.16 226.445 15.16H220.865V25.72H226.445ZM263.287 49.48C260.007 49.48 257.047 48.78 254.407 47.38C251.807 45.98 249.747 43.98 248.227 41.38C246.747 38.78 246.007 35.74 246.007 32.26C246.007 28.82 246.767 25.8 248.287 23.2C249.807 20.56 251.887 18.54 254.527 17.14C257.167 15.74 260.127 15.04 263.407 15.04C266.687 15.04 269.647 15.74 272.287 17.14C274.927 18.54 277.007 20.56 278.527 23.2C280.047 25.8 280.807 28.82 280.807 32.26C280.807 35.7 280.027 38.74 278.467 41.38C276.947 43.98 274.847 45.98 272.167 47.38C269.527 48.78 266.567 49.48 263.287 49.48ZM263.287 40.6C265.247 40.6 266.907 39.88 268.267 38.44C269.667 37 270.367 34.94 270.367 32.26C270.367 29.58 269.687 27.52 268.327 26.08C267.007 24.64 265.367 23.92 263.407 23.92C261.407 23.92 259.747 24.64 258.427 26.08C257.107 27.48 256.447 29.54 256.447 32.26C256.447 34.94 257.087 37 258.367 38.44C259.687 39.88 261.327 40.6 263.287 40.6ZM299.87 49.48C296.95 49.48 294.35 48.98 292.07 47.98C289.79 46.98 287.99 45.62 286.67 43.9C285.35 42.14 284.61 40.18 284.45 38.02H294.59C294.71 39.18 295.25 40.12 296.21 40.84C297.17 41.56 298.35 41.92 299.75 41.92C301.03 41.92 302.01 41.68 302.69 41.2C303.41 40.68 303.77 40.02 303.77 39.22C303.77 38.26 303.27 37.56 302.27 37.12C301.27 36.64 299.65 36.12 297.41 35.56C295.01 35 293.01 34.42 291.41 33.82C289.81 33.18 288.43 32.2 287.27 30.88C286.11 29.52 285.53 27.7 285.53 25.42C285.53 23.5 286.05 21.76 287.09 20.2C288.17 18.6 289.73 17.34 291.77 16.42C293.85 15.5 296.31 15.04 299.15 15.04C303.35 15.04 306.65 16.08 309.05 18.16C311.49 20.24 312.89 23 313.25 26.44H303.77C303.61 25.28 303.09 24.36 302.21 23.68C301.37 23 300.25 22.66 298.85 22.66C297.65 22.66 296.73 22.9 296.09 23.38C295.45 23.82 295.13 24.44 295.13 25.24C295.13 26.2 295.63 26.92 296.63 27.4C297.67 27.88 299.27 28.36 301.43 28.84C303.91 29.48 305.93 30.12 307.49 30.76C309.05 31.36 310.41 32.36 311.57 33.76C312.77 35.12 313.39 36.96 313.43 39.28C313.43 41.24 312.87 43 311.75 44.56C310.67 46.08 309.09 47.28 307.01 48.16C304.97 49.04 302.59 49.48 299.87 49.48ZM324.867 12.04C323.067 12.04 321.587 11.52 320.427 10.48C319.307 9.4 318.747 8.08 318.747 6.52C318.747 4.92 319.307 3.6 320.427 2.56C321.587 1.48 323.067 0.939996 324.867 0.939996C326.627 0.939996 328.067 1.48 329.187 2.56C330.347 3.6 330.927 4.92 330.927 6.52C330.927 8.08 330.347 9.4 329.187 10.48C328.067 11.52 326.627 12.04 324.867 12.04ZM329.967 15.52V49H319.707V15.52H329.967ZM356.062 40.3V49H350.842C347.122 49 344.222 48.1 342.142 46.3C340.062 44.46 339.022 41.48 339.022 37.36V24.04H334.942V15.52H339.022V7.36H349.282V15.52H356.002V24.04H349.282V37.48C349.282 38.48 349.522 39.2 350.002 39.64C350.482 40.08 351.282 40.3 352.402 40.3H356.062ZM366.937 12.04C365.137 12.04 363.657 11.52 362.497 10.48C361.377 9.4 360.817 8.08 360.817 6.52C360.817 4.92 361.377 3.6 362.497 2.56C363.657 1.48 365.137 0.939996 366.937 0.939996C368.697 0.939996 370.137 1.48 371.257 2.56C372.417 3.6 372.997 4.92 372.997 6.52C372.997 8.08 372.417 9.4 371.257 10.48C370.137 11.52 368.697 12.04 366.937 12.04ZM372.037 15.52V49H361.777V15.52H372.037ZM394.532 39.4L401.792 15.52H412.712L400.832 49H388.172L376.292 15.52H387.272L394.532 39.4ZM448.591 31.72C448.591 32.68 448.531 33.68 448.411 34.72H425.191C425.351 36.8 426.011 38.4 427.171 39.52C428.371 40.6 429.831 41.14 431.551 41.14C434.111 41.14 435.891 40.06 436.891 37.9H447.811C447.251 40.1 446.231 42.08 444.751 43.84C443.311 45.6 441.491 46.98 439.291 47.98C437.091 48.98 434.631 49.48 431.911 49.48C428.631 49.48 425.711 48.78 423.151 47.38C420.591 45.98 418.591 43.98 417.151 41.38C415.711 38.78 414.991 35.74 414.991 32.26C414.991 28.78 415.691 25.74 417.091 23.14C418.531 20.54 420.531 18.54 423.091 17.14C425.651 15.74 428.591 15.04 431.911 15.04C435.151 15.04 438.031 15.72 440.551 17.08C443.071 18.44 445.031 20.38 446.431 22.9C447.871 25.42 448.591 28.36 448.591 31.72ZM438.091 29.02C438.091 27.26 437.491 25.86 436.291 24.82C435.091 23.78 433.591 23.26 431.791 23.26C430.071 23.26 428.611 23.76 427.411 24.76C426.251 25.76 425.531 27.18 425.251 29.02H438.091ZM225.845 104.42C222.765 104.42 220.005 103.92 217.565 102.92C215.125 101.92 213.165 100.44 211.685 98.48C210.245 96.52 209.485 94.16 209.405 91.4H220.325C220.485 92.96 221.025 94.16 221.945 95C222.865 95.8 224.065 96.2 225.545 96.2C227.065 96.2 228.265 95.86 229.145 95.18C230.025 94.46 230.465 93.48 230.465 92.24C230.465 91.2 230.105 90.34 229.385 89.66C228.705 88.98 227.845 88.42 226.805 87.98C225.805 87.54 224.365 87.04 222.485 86.48C219.765 85.64 217.545 84.8 215.825 83.96C214.105 83.12 212.625 81.88 211.385 80.24C210.145 78.6 209.525 76.46 209.525 73.82C209.525 69.9 210.945 66.84 213.785 64.64C216.625 62.4 220.325 61.28 224.885 61.28C229.525 61.28 233.265 62.4 236.105 64.64C238.945 66.84 240.465 69.92 240.665 73.88H229.565C229.485 72.52 228.985 71.46 228.065 70.7C227.145 69.9 225.965 69.5 224.525 69.5C223.285 69.5 222.285 69.84 221.525 70.52C220.765 71.16 220.385 72.1 220.385 73.34C220.385 74.7 221.025 75.76 222.305 76.52C223.585 77.28 225.585 78.1 228.305 78.98C231.025 79.9 233.225 80.78 234.905 81.62C236.625 82.46 238.105 83.68 239.345 85.28C240.585 86.88 241.205 88.94 241.205 91.46C241.205 93.86 240.585 96.04 239.345 98C238.145 99.96 236.385 101.52 234.065 102.68C231.745 103.84 229.005 104.42 225.845 104.42ZM245.479 87.2C245.479 83.76 246.119 80.74 247.399 78.14C248.719 75.54 250.499 73.54 252.739 72.14C254.979 70.74 257.479 70.04 260.239 70.04C262.599 70.04 264.659 70.52 266.419 71.48C268.219 72.44 269.599 73.7 270.559 75.26V70.52H280.819V104H270.559V99.26C269.559 100.82 268.159 102.08 266.359 103.04C264.599 104 262.539 104.48 260.179 104.48C257.459 104.48 254.979 103.78 252.739 102.38C250.499 100.94 248.719 98.92 247.399 96.32C246.119 93.68 245.479 90.64 245.479 87.2ZM270.559 87.26C270.559 84.7 269.839 82.68 268.399 81.2C266.999 79.72 265.279 78.98 263.239 78.98C261.199 78.98 259.459 79.72 258.019 81.2C256.619 82.64 255.919 84.64 255.919 87.2C255.919 89.76 256.619 91.8 258.019 93.32C259.459 94.8 261.199 95.54 263.239 95.54C265.279 95.54 266.999 94.8 268.399 93.32C269.839 91.84 270.559 89.82 270.559 87.26ZM305.042 79.04H299.522V104H289.262V79.04H285.542V70.52H289.262V69.56C289.262 65.44 290.442 62.32 292.802 60.2C295.162 58.04 298.622 56.96 303.182 56.96C303.942 56.96 304.502 56.98 304.862 57.02V65.72C302.902 65.6 301.522 65.88 300.722 66.56C299.922 67.24 299.522 68.46 299.522 70.22V70.52H305.042V79.04ZM341.423 86.72C341.423 87.68 341.363 88.68 341.243 89.72H318.023C318.183 91.8 318.843 93.4 320.003 94.52C321.203 95.6 322.663 96.14 324.383 96.14C326.943 96.14 328.723 95.06 329.723 92.9H340.643C340.083 95.1 339.063 97.08 337.583 98.84C336.143 100.6 334.323 101.98 332.123 102.98C329.923 103.98 327.463 104.48 324.743 104.48C321.463 104.48 318.543 103.78 315.983 102.38C313.423 100.98 311.423 98.98 309.983 96.38C308.543 93.78 307.823 90.74 307.823 87.26C307.823 83.78 308.523 80.74 309.923 78.14C311.363 75.54 313.363 73.54 315.923 72.14C318.483 70.74 321.423 70.04 324.743 70.04C327.983 70.04 330.863 70.72 333.383 72.08C335.903 73.44 337.863 75.38 339.263 77.9C340.703 80.42 341.423 83.36 341.423 86.72ZM330.923 84.02C330.923 82.26 330.323 80.86 329.123 79.82C327.923 78.78 326.423 78.26 324.623 78.26C322.903 78.26 321.443 78.76 320.243 79.76C319.083 80.76 318.363 82.18 318.083 84.02H330.923ZM365.496 95.3V104H360.276C356.556 104 353.656 103.1 351.576 101.3C349.496 99.46 348.456 96.48 348.456 92.36V79.04H344.376V70.52H348.456V62.36H358.716V70.52H365.436V79.04H358.716V92.48C358.716 93.48 358.956 94.2 359.436 94.64C359.916 95.08 360.716 95.3 361.836 95.3H365.496ZM405.411 70.52L384.411 119.9H373.371L381.051 102.86L367.431 70.52H378.891L386.631 91.46L394.311 70.52H405.411Z" fill="white"></path><path d="M225.845 170.42C222.765 170.42 220.005 169.92 217.565 168.92C215.125 167.92 213.165 166.44 211.685 164.48C210.245 162.52 209.485 160.16 209.405 157.4H220.325C220.485 158.96 221.025 160.16 221.945 161C222.865 161.8 224.065 162.2 225.545 162.2C227.065 162.2 228.265 161.86 229.145 161.18C230.025 160.46 230.465 159.48 230.465 158.24C230.465 157.2 230.105 156.34 229.385 155.66C228.705 154.98 227.845 154.42 226.805 153.98C225.805 153.54 224.365 153.04 222.485 152.48C219.765 151.64 217.545 150.8 215.825 149.96C214.105 149.12 212.625 147.88 211.385 146.24C210.145 144.6 209.525 142.46 209.525 139.82C209.525 135.9 210.945 132.84 213.785 130.64C216.625 128.4 220.325 127.28 224.885 127.28C229.525 127.28 233.265 128.4 236.105 130.64C238.945 132.84 240.465 135.92 240.665 139.88H229.565C229.485 138.52 228.985 137.46 228.065 136.7C227.145 135.9 225.965 135.5 224.525 135.5C223.285 135.5 222.285 135.84 221.525 136.52C220.765 137.16 220.385 138.1 220.385 139.34C220.385 140.7 221.025 141.76 222.305 142.52C223.585 143.28 225.585 144.1 228.305 144.98C231.025 145.9 233.225 146.78 234.905 147.62C236.625 148.46 238.105 149.68 239.345 151.28C240.585 152.88 241.205 154.94 241.205 157.46C241.205 159.86 240.585 162.04 239.345 164C238.145 165.96 236.385 167.52 234.065 168.68C231.745 169.84 229.005 170.42 225.845 170.42ZM262.759 170.48C259.479 170.48 256.519 169.78 253.879 168.38C251.279 166.98 249.219 164.98 247.699 162.38C246.219 159.78 245.479 156.74 245.479 153.26C245.479 149.82 246.239 146.8 247.759 144.2C249.279 141.56 251.359 139.54 253.999 138.14C256.639 136.74 259.599 136.04 262.879 136.04C266.159 136.04 269.119 136.74 271.759 138.14C274.399 139.54 276.479 141.56 277.999 144.2C279.519 146.8 280.279 149.82 280.279 153.26C280.279 156.7 279.499 159.74 277.939 162.38C276.419 164.98 274.319 166.98 271.639 168.38C268.999 169.78 266.039 170.48 262.759 170.48ZM262.759 161.6C264.719 161.6 266.379 160.88 267.739 159.44C269.139 158 269.839 155.94 269.839 153.26C269.839 150.58 269.159 148.52 267.799 147.08C266.479 145.64 264.839 144.92 262.879 144.92C260.879 144.92 259.219 145.64 257.899 147.08C256.579 148.48 255.919 150.54 255.919 153.26C255.919 155.94 256.559 158 257.839 159.44C259.159 160.88 260.799 161.6 262.759 161.6ZM295.982 125.6V170H285.722V125.6H295.982ZM336.478 136.52V170H326.218V165.44C325.178 166.92 323.758 168.12 321.958 169.04C320.198 169.92 318.238 170.36 316.078 170.36C313.518 170.36 311.258 169.8 309.298 168.68C307.338 167.52 305.818 165.86 304.738 163.7C303.658 161.54 303.118 159 303.118 156.08V136.52H313.318V154.7C313.318 156.94 313.898 158.68 315.058 159.92C316.218 161.16 317.778 161.78 319.738 161.78C321.738 161.78 323.318 161.16 324.478 159.92C325.638 158.68 326.218 156.94 326.218 154.7V136.52H336.478ZM362.507 161.3V170H357.287C353.567 170 350.667 169.1 348.587 167.3C346.507 165.46 345.467 162.48 345.467 158.36V145.04H341.387V136.52H345.467V128.36H355.727V136.52H362.447V145.04H355.727V158.48C355.727 159.48 355.967 160.2 356.447 160.64C356.927 161.08 357.727 161.3 358.847 161.3H362.507ZM373.382 133.04C371.582 133.04 370.102 132.52 368.942 131.48C367.822 130.4 367.262 129.08 367.262 127.52C367.262 125.92 367.822 124.6 368.942 123.56C370.102 122.48 371.582 121.94 373.382 121.94C375.142 121.94 376.582 122.48 377.702 123.56C378.862 124.6 379.442 125.92 379.442 127.52C379.442 129.08 378.862 130.4 377.702 131.48C376.582 132.52 375.142 133.04 373.382 133.04ZM378.482 136.52V170H368.222V136.52H378.482ZM401.158 170.48C397.878 170.48 394.918 169.78 392.278 168.38C389.678 166.98 387.618 164.98 386.098 162.38C384.618 159.78 383.878 156.74 383.878 153.26C383.878 149.82 384.638 146.8 386.158 144.2C387.678 141.56 389.758 139.54 392.398 138.14C395.038 136.74 397.998 136.04 401.278 136.04C404.558 136.04 407.518 136.74 410.158 138.14C412.798 139.54 414.878 141.56 416.398 144.2C417.918 146.8 418.678 149.82 418.678 153.26C418.678 156.7 417.898 159.74 416.338 162.38C414.818 164.98 412.718 166.98 410.038 168.38C407.398 169.78 404.438 170.48 401.158 170.48ZM401.158 161.6C403.118 161.6 404.778 160.88 406.138 159.44C407.538 158 408.238 155.94 408.238 153.26C408.238 150.58 407.558 148.52 406.198 147.08C404.878 145.64 403.238 144.92 401.278 144.92C399.278 144.92 397.618 145.64 396.298 147.08C394.978 148.48 394.318 150.54 394.318 153.26C394.318 155.94 394.958 158 396.238 159.44C397.558 160.88 399.198 161.6 401.158 161.6ZM444.521 136.16C448.441 136.16 451.561 137.44 453.881 140C456.241 142.52 457.421 146 457.421 150.44V170H447.221V151.82C447.221 149.58 446.641 147.84 445.481 146.6C444.321 145.36 442.761 144.74 440.801 144.74C438.841 144.74 437.281 145.36 436.121 146.6C434.961 147.84 434.381 149.58 434.381 151.82V170H424.121V136.52H434.381V140.96C435.421 139.48 436.821 138.32 438.581 137.48C440.341 136.6 442.321 136.16 444.521 136.16ZM478.17 170.48C475.25 170.48 472.65 169.98 470.37 168.98C468.09 167.98 466.29 166.62 464.97 164.9C463.65 163.14 462.91 161.18 462.75 159.02H472.89C473.01 160.18 473.55 161.12 474.51 161.84C475.47 162.56 476.65 162.92 478.05 162.92C479.33 162.92 480.31 162.68 480.99 162.2C481.71 161.68 482.07 161.02 482.07 160.22C482.07 159.26 481.57 158.56 480.57 158.12C479.57 157.64 477.95 157.12 475.71 156.56C473.31 156 471.31 155.42 469.71 154.82C468.11 154.18 466.73 153.2 465.57 151.88C464.41 150.52 463.83 148.7 463.83 146.42C463.83 144.5 464.35 142.76 465.39 141.2C466.47 139.6 468.03 138.34 470.07 137.42C472.15 136.5 474.61 136.04 477.45 136.04C481.65 136.04 484.95 137.08 487.35 139.16C489.79 141.24 491.19 144 491.55 147.44H482.07C481.91 146.28 481.39 145.36 480.51 144.68C479.67 144 478.55 143.66 477.15 143.66C475.95 143.66 475.03 143.9 474.39 144.38C473.75 144.82 473.43 145.44 473.43 146.24C473.43 147.2 473.93 147.92 474.93 148.4C475.97 148.88 477.57 149.36 479.73 149.84C482.21 150.48 484.23 151.12 485.79 151.76C487.35 152.36 488.71 153.36 489.87 154.76C491.07 156.12 491.69 157.96 491.73 160.28C491.73 162.24 491.17 164 490.05 165.56C488.97 167.08 487.39 168.28 485.31 169.16C483.27 170.04 480.89 170.48 478.17 170.48Z" fill="white"></path><path fill-rule="evenodd" clip-rule="evenodd" d="M147.546 13.1771C137.527 8.25521 124.709 0 99.581 0C74.4794 0 61.3424 5.46875 47.3526 13.9323C68.0574 25.651 140.804 19.1146 147.546 13.1771Z" fill="url(#paint0_radial)"></path><path fill-rule="evenodd" clip-rule="evenodd" d="M20.4123 35.9375C20.4123 35.9375 40.2111 59.4531 101.233 59.0625C159.457 52.7083 174.086 39.5573 176.218 38.8021C171.555 29.3229 158.285 21.0156 158.285 21.0156C158.285 21.0156 138.886 33.4896 97.5292 35.1823C57.7716 36.224 49.5376 31.4063 32.67 25.3125C26.1148 27.6302 20.4123 35.9375 20.4123 35.9375Z" fill="url(#paint1_radial)"></path><path fill-rule="evenodd" clip-rule="evenodd" d="M179.949 44.974C173.42 54.2969 133.263 73.9063 89.5884 72.7865C73.2537 73.8021 21.6648 67.4219 13.4041 47.1354C14.7365 48.6719 11.3523 43.3333 4.79712 68.5677C18.6803 91.9271 58.1181 94.1406 91.9067 95.7552C137.26 94.8438 169.157 87.6563 192.26 73.4896C189.569 62.5521 184.106 50.599 179.949 44.974Z" fill="url(#paint2_radial)"></path><path fill-rule="evenodd" clip-rule="evenodd" d="M194.818 83.6979C189.169 91.3021 127.827 112.396 79.4624 110.651C33.7892 109.74 7.54174 102.214 0.800015 89.7135C-1.09193 91.5625 0.826656 106.641 1.89254 113.385C33.123 135.99 64.54 132.682 78.583 133.594C131.931 133.672 165.746 127.292 193.326 113.151C197.11 98.3333 195.377 87.6042 194.818 83.6979Z" fill="url(#paint3_radial)"></path><path fill-rule="evenodd" clip-rule="evenodd" d="M56.7857 180.729C70.5622 187.526 90.3344 190.625 97.5292 190.156C123.75 189.844 150.291 177.708 155.353 170.234C139.658 175.911 121.885 178.307 109.334 180.339C106.083 180.521 78.8229 181.901 56.7857 180.729Z" fill="url(#paint4_radial)"></path><path fill-rule="evenodd" clip-rule="evenodd" d="M12.8712 139.844C12.8712 139.844 16.1488 148.021 22.1178 153.542C30.2452 157.969 43.0358 168.203 100.354 166.458C138.939 165.599 169.183 153.333 176.485 150.13C179.762 145.156 186.93 134.219 189.169 125.469C185.731 125.182 170.356 146.615 72.2677 148.516C23.9298 147.187 12.8712 139.844 12.8712 139.844Z" fill="url(#paint5_radial)"></path><path d="M208.056 199.736C208.056 197.517 208.536 195.544 209.496 193.816C210.456 192.067 211.789 190.712 213.496 189.752C215.224 188.771 217.176 188.28 219.352 188.28C222.019 188.28 224.301 188.984 226.2 190.392C228.099 191.8 229.368 193.72 230.008 196.152H223.992C223.544 195.213 222.904 194.499 222.072 194.008C221.261 193.517 220.333 193.272 219.288 193.272C217.603 193.272 216.237 193.859 215.192 195.032C214.147 196.205 213.624 197.773 213.624 199.736C213.624 201.699 214.147 203.267 215.192 204.44C216.237 205.613 217.603 206.2 219.288 206.2C220.333 206.2 221.261 205.955 222.072 205.464C222.904 204.973 223.544 204.259 223.992 203.32H230.008C229.368 205.752 228.099 207.672 226.2 209.08C224.301 210.467 222.019 211.16 219.352 211.16C217.176 211.16 215.224 210.68 213.496 209.72C211.789 208.739 210.456 207.384 209.496 205.656C208.536 203.928 208.056 201.955 208.056 199.736ZM241.487 211.256C239.738 211.256 238.159 210.883 236.751 210.136C235.364 209.389 234.266 208.323 233.455 206.936C232.666 205.549 232.271 203.928 232.271 202.072C232.271 200.237 232.676 198.627 233.487 197.24C234.298 195.832 235.407 194.755 236.815 194.008C238.223 193.261 239.802 192.888 241.551 192.888C243.3 192.888 244.879 193.261 246.287 194.008C247.695 194.755 248.804 195.832 249.615 197.24C250.426 198.627 250.831 200.237 250.831 202.072C250.831 203.907 250.415 205.528 249.583 206.936C248.772 208.323 247.652 209.389 246.223 210.136C244.815 210.883 243.236 211.256 241.487 211.256ZM241.487 206.52C242.532 206.52 243.418 206.136 244.143 205.368C244.89 204.6 245.263 203.501 245.263 202.072C245.263 200.643 244.9 199.544 244.175 198.776C243.471 198.008 242.596 197.624 241.551 197.624C240.484 197.624 239.599 198.008 238.895 198.776C238.191 199.523 237.839 200.621 237.839 202.072C237.839 203.501 238.18 204.6 238.863 205.368C239.567 206.136 240.442 206.52 241.487 206.52ZM264.614 192.952C266.705 192.952 268.369 193.635 269.606 195C270.865 196.344 271.494 198.2 271.494 200.568V211H266.054V201.304C266.054 200.109 265.745 199.181 265.126 198.52C264.507 197.859 263.675 197.528 262.63 197.528C261.585 197.528 260.753 197.859 260.134 198.52C259.515 199.181 259.206 200.109 259.206 201.304V211H253.734V193.144H259.206V195.512C259.761 194.723 260.507 194.104 261.446 193.656C262.385 193.187 263.441 192.952 264.614 192.952ZM282.561 211.256C281.003 211.256 279.617 210.989 278.401 210.456C277.185 209.923 276.225 209.197 275.521 208.28C274.817 207.341 274.422 206.296 274.337 205.144H279.745C279.809 205.763 280.097 206.264 280.609 206.648C281.121 207.032 281.75 207.224 282.497 207.224C283.179 207.224 283.702 207.096 284.065 206.84C284.449 206.563 284.641 206.211 284.641 205.784C284.641 205.272 284.374 204.899 283.841 204.664C283.307 204.408 282.443 204.131 281.249 203.832C279.969 203.533 278.902 203.224 278.049 202.904C277.195 202.563 276.459 202.04 275.841 201.336C275.222 200.611 274.913 199.64 274.913 198.424C274.913 197.4 275.19 196.472 275.745 195.64C276.321 194.787 277.153 194.115 278.241 193.624C279.35 193.133 280.662 192.888 282.177 192.888C284.417 192.888 286.177 193.443 287.457 194.552C288.758 195.661 289.505 197.133 289.697 198.968H284.641C284.555 198.349 284.278 197.859 283.809 197.496C283.361 197.133 282.763 196.952 282.017 196.952C281.377 196.952 280.886 197.08 280.545 197.336C280.203 197.571 280.033 197.901 280.033 198.328C280.033 198.84 280.299 199.224 280.833 199.48C281.387 199.736 282.241 199.992 283.393 200.248C284.715 200.589 285.793 200.931 286.625 201.272C287.457 201.592 288.182 202.125 288.801 202.872C289.441 203.597 289.771 204.579 289.793 205.816C289.793 206.861 289.494 207.8 288.897 208.632C288.321 209.443 287.478 210.083 286.369 210.552C285.281 211.021 284.011 211.256 282.561 211.256ZM310.772 193.144V211H305.3V208.568C304.746 209.357 303.988 209.997 303.028 210.488C302.09 210.957 301.044 211.192 299.892 211.192C298.527 211.192 297.322 210.893 296.276 210.296C295.231 209.677 294.42 208.792 293.844 207.64C293.268 206.488 292.98 205.133 292.98 203.576V193.144H298.42V202.84C298.42 204.035 298.73 204.963 299.348 205.624C299.967 206.285 300.799 206.616 301.844 206.616C302.911 206.616 303.754 206.285 304.372 205.624C304.991 204.963 305.3 204.035 305.3 202.84V193.144H310.772ZM320.175 187.32V211H314.703V187.32H320.175ZM334.092 206.36V211H331.308C329.324 211 327.778 210.52 326.668 209.56C325.559 208.579 325.004 206.989 325.004 204.792V197.688H322.828V193.144H325.004V188.792H330.476V193.144H334.06V197.688H330.476V204.856C330.476 205.389 330.604 205.773 330.86 206.008C331.116 206.243 331.543 206.36 332.14 206.36H334.092ZM336.052 202.04C336.052 200.205 336.394 198.595 337.076 197.208C337.78 195.821 338.73 194.755 339.924 194.008C341.119 193.261 342.452 192.888 343.924 192.888C345.183 192.888 346.282 193.144 347.22 193.656C348.18 194.168 348.916 194.84 349.428 195.672V193.144H354.9V211H349.428V208.472C348.895 209.304 348.148 209.976 347.188 210.488C346.25 211 345.151 211.256 343.892 211.256C342.442 211.256 341.119 210.883 339.924 210.136C338.73 209.368 337.78 208.291 337.076 206.904C336.394 205.496 336.052 203.875 336.052 202.04ZM349.428 202.072C349.428 200.707 349.044 199.629 348.276 198.84C347.53 198.051 346.612 197.656 345.524 197.656C344.436 197.656 343.508 198.051 342.74 198.84C341.994 199.608 341.62 200.675 341.62 202.04C341.62 203.405 341.994 204.493 342.74 205.304C343.508 206.093 344.436 206.488 345.524 206.488C346.612 206.488 347.53 206.093 348.276 205.304C349.044 204.515 349.428 203.437 349.428 202.072ZM369.739 192.952C371.83 192.952 373.494 193.635 374.731 195C375.99 196.344 376.619 198.2 376.619 200.568V211H371.179V201.304C371.179 200.109 370.87 199.181 370.251 198.52C369.632 197.859 368.8 197.528 367.755 197.528C366.71 197.528 365.878 197.859 365.259 198.52C364.64 199.181 364.331 200.109 364.331 201.304V211H358.859V193.144H364.331V195.512C364.886 194.723 365.632 194.104 366.571 193.656C367.51 193.187 368.566 192.952 369.739 192.952ZM379.334 202.072C379.334 200.216 379.707 198.595 380.454 197.208C381.222 195.821 382.278 194.755 383.622 194.008C384.987 193.261 386.544 192.888 388.294 192.888C390.534 192.888 392.4 193.475 393.894 194.648C395.408 195.821 396.4 197.475 396.87 199.608H391.046C390.555 198.243 389.606 197.56 388.198 197.56C387.195 197.56 386.395 197.955 385.798 198.744C385.2 199.512 384.902 200.621 384.902 202.072C384.902 203.523 385.2 204.643 385.798 205.432C386.395 206.2 387.195 206.584 388.198 206.584C389.606 206.584 390.555 205.901 391.046 204.536H396.87C396.4 206.627 395.408 208.269 393.894 209.464C392.379 210.659 390.512 211.256 388.294 211.256C386.544 211.256 384.987 210.883 383.622 210.136C382.278 209.389 381.222 208.323 380.454 206.936C379.707 205.549 379.334 203.928 379.334 202.072ZM418.037 193.144L406.837 219.48H400.949L405.045 210.392L397.78 193.144H403.893L408.021 204.312L412.117 193.144H418.037ZM443.981 211L441.901 208.984C439.831 210.563 437.357 211.352 434.477 211.352C432.749 211.352 431.245 211.075 429.965 210.52C428.685 209.944 427.693 209.144 426.989 208.12C426.306 207.075 425.965 205.859 425.965 204.472C425.965 203.064 426.338 201.795 427.085 200.664C427.853 199.512 428.994 198.573 430.509 197.848C429.954 197.165 429.559 196.515 429.325 195.896C429.09 195.256 428.973 194.563 428.973 193.816C428.973 192.749 429.25 191.779 429.805 190.904C430.359 190.029 431.159 189.347 432.205 188.856C433.271 188.344 434.53 188.088 435.981 188.088C437.453 188.088 438.701 188.355 439.725 188.888C440.749 189.421 441.517 190.136 442.029 191.032C442.541 191.928 442.775 192.909 442.733 193.976H437.581C437.602 193.4 437.453 192.963 437.133 192.664C436.834 192.344 436.429 192.184 435.917 192.184C435.405 192.184 434.978 192.333 434.637 192.632C434.295 192.931 434.125 193.315 434.125 193.784C434.125 194.232 434.263 194.701 434.541 195.192C434.839 195.683 435.298 196.248 435.917 196.888L441.389 202.232C441.431 202.125 441.485 201.997 441.549 201.848C441.634 201.699 441.719 201.528 441.805 201.336L442.989 199.32H448.461L446.925 202.104C446.349 203.363 445.687 204.557 444.941 205.688L450.349 211H443.981ZM434.733 206.936C436.162 206.936 437.431 206.531 438.541 205.72L433.549 200.888C432.013 201.677 431.245 202.744 431.245 204.088C431.245 204.899 431.554 205.581 432.173 206.136C432.813 206.669 433.666 206.936 434.733 206.936ZM475.269 188.536V192.92H469.317V211H463.845V192.92H457.893V188.536H475.269ZM483.487 196.12C484.127 195.139 484.927 194.371 485.887 193.816C486.847 193.24 487.914 192.952 489.087 192.952V198.744H487.583C486.218 198.744 485.194 199.043 484.511 199.64C483.829 200.216 483.487 201.24 483.487 202.712V211H478.015V193.144H483.487V196.12ZM490.615 202.04C490.615 200.205 490.956 198.595 491.639 197.208C492.343 195.821 493.292 194.755 494.487 194.008C495.681 193.261 497.015 192.888 498.487 192.888C499.745 192.888 500.844 193.144 501.783 193.656C502.743 194.168 503.479 194.84 503.991 195.672V193.144H509.463V211H503.991V208.472C503.457 209.304 502.711 209.976 501.751 210.488C500.812 211 499.713 211.256 498.455 211.256C497.004 211.256 495.681 210.883 494.487 210.136C493.292 209.368 492.343 208.291 491.639 206.904C490.956 205.496 490.615 203.875 490.615 202.04ZM503.991 202.072C503.991 200.707 503.607 199.629 502.839 198.84C502.092 198.051 501.175 197.656 500.087 197.656C498.999 197.656 498.071 198.051 497.303 198.84C496.556 199.608 496.183 200.675 496.183 202.04C496.183 203.405 496.556 204.493 497.303 205.304C498.071 206.093 498.999 206.488 500.087 206.488C501.175 206.488 502.092 206.093 502.839 205.304C503.607 204.515 503.991 203.437 503.991 202.072ZM516.174 191.288C515.214 191.288 514.424 191.011 513.806 190.456C513.208 189.88 512.91 189.176 512.91 188.344C512.91 187.491 513.208 186.787 513.806 186.232C514.424 185.656 515.214 185.368 516.174 185.368C517.112 185.368 517.88 185.656 518.478 186.232C519.096 186.787 519.406 187.491 519.406 188.344C519.406 189.176 519.096 189.88 518.478 190.456C517.88 191.011 517.112 191.288 516.174 191.288ZM518.894 193.144V211H513.422V193.144H518.894ZM533.739 192.952C535.83 192.952 537.494 193.635 538.731 195C539.99 196.344 540.619 198.2 540.619 200.568V211H535.179V201.304C535.179 200.109 534.87 199.181 534.251 198.52C533.632 197.859 532.8 197.528 531.755 197.528C530.71 197.528 529.878 197.859 529.259 198.52C528.64 199.181 528.331 200.109 528.331 201.304V211H522.859V193.144H528.331V195.512C528.886 194.723 529.632 194.104 530.571 193.656C531.51 193.187 532.566 192.952 533.739 192.952ZM547.174 191.288C546.214 191.288 545.424 191.011 544.806 190.456C544.208 189.88 543.91 189.176 543.91 188.344C543.91 187.491 544.208 186.787 544.806 186.232C545.424 185.656 546.214 185.368 547.174 185.368C548.112 185.368 548.88 185.656 549.478 186.232C550.096 186.787 550.406 187.491 550.406 188.344C550.406 189.176 550.096 189.88 549.478 190.456C548.88 191.011 548.112 191.288 547.174 191.288ZM549.894 193.144V211H544.422V193.144H549.894ZM564.739 192.952C566.83 192.952 568.494 193.635 569.731 195C570.99 196.344 571.619 198.2 571.619 200.568V211H566.179V201.304C566.179 200.109 565.87 199.181 565.251 198.52C564.632 197.859 563.8 197.528 562.755 197.528C561.71 197.528 560.878 197.859 560.259 198.52C559.64 199.181 559.331 200.109 559.331 201.304V211H553.859V193.144H559.331V195.512C559.886 194.723 560.632 194.104 561.571 193.656C562.51 193.187 563.566 192.952 564.739 192.952ZM582.206 192.888C583.464 192.888 584.563 193.144 585.502 193.656C586.462 194.168 587.198 194.84 587.71 195.672V193.144H593.182V210.968C593.182 212.611 592.851 214.093 592.19 215.416C591.55 216.76 590.558 217.827 589.214 218.616C587.891 219.405 586.238 219.8 584.254 219.8C581.608 219.8 579.464 219.171 577.822 217.912C576.179 216.675 575.24 214.989 575.006 212.856H580.414C580.584 213.539 580.99 214.072 581.63 214.456C582.27 214.861 583.059 215.064 583.998 215.064C585.128 215.064 586.024 214.733 586.686 214.072C587.368 213.432 587.71 212.397 587.71 210.968V208.44C587.176 209.272 586.44 209.955 585.502 210.488C584.563 211 583.464 211.256 582.206 211.256C580.734 211.256 579.4 210.883 578.206 210.136C577.011 209.368 576.062 208.291 575.358 206.904C574.675 205.496 574.334 203.875 574.334 202.04C574.334 200.205 574.675 198.595 575.358 197.208C576.062 195.821 577.011 194.755 578.206 194.008C579.4 193.261 580.734 192.888 582.206 192.888ZM587.71 202.072C587.71 200.707 587.326 199.629 586.558 198.84C585.811 198.051 584.894 197.656 583.806 197.656C582.718 197.656 581.79 198.051 581.022 198.84C580.275 199.608 579.902 200.675 579.902 202.04C579.902 203.405 580.275 204.493 581.022 205.304C581.79 206.093 582.718 206.488 583.806 206.488C584.894 206.488 585.811 206.093 586.558 205.304C587.326 204.515 587.71 203.437 587.71 202.072Z" fill="white"></path><defs><radialGradient id="paint0_radial" cx="0" cy="0" r="1" gradientUnits="userSpaceOnUse" gradientTransform="translate(102.528 9.6022) scale(24.7837 24.2205)"><stop stop-color="#D2D569"></stop><stop offset="1" stop-color="#1E8634"></stop></radialGradient><radialGradient id="paint1_radial" cx="0" cy="0" r="1" gradientUnits="userSpaceOnUse" gradientTransform="translate(98.3153 40.0415) scale(77.8827 76.113)"><stop stop-color="#FEEA00"></stop><stop offset="0.9725" stop-color="#FBC407"></stop></radialGradient><radialGradient id="paint2_radial" cx="0" cy="0" r="1" gradientUnits="userSpaceOnUse" gradientTransform="translate(98.5285 70.3646) scale(93.7417 91.6116)"><stop stop-color="#F57923"></stop><stop offset="1" stop-color="#FF6735"></stop></radialGradient><radialGradient id="paint3_radial" cx="0" cy="0" r="1" gradientUnits="userSpaceOnUse" gradientTransform="translate(45.6419 112.899) scale(85.1081 83.1742)"><stop offset="0.0225" stop-color="#CA161C"></stop><stop offset="0.99" stop-color="#952019"></stop></radialGradient><radialGradient id="paint4_radial" cx="0" cy="0" r="1" gradientUnits="userSpaceOnUse" gradientTransform="translate(109.792 183.241) scale(24.2879 23.736)"><stop offset="0.3475" stop-color="#029FE5"></stop><stop offset="1" stop-color="#104678"></stop></radialGradient><radialGradient id="paint5_radial" cx="0" cy="0" r="1" gradientUnits="userSpaceOnUse" gradientTransform="translate(109.161 146.963) scale(69.5494 67.9691)"><stop stop-color="#DE349D"></stop><stop offset="1" stop-color="#6B2B95"></stop></radialGradient></defs></svg>